<?xml version="1.0" encoding="UTF-8"?>
<svg xmlns="http://www.w3.org/2000/svg" baseProfile="tiny" version="1.2" viewBox="0 0 64 64">
  <path d="M6.2759693,3.522481l20.0434121,20.0434111c-1.0914732.744186-2.0837213,1.6868225-2.8279074,2.8279074L3.497674,6.3007763l2.8279064-2.8279069h0l-.0496112.0496116Z" fill="#ea4335"/>
  <path d="M60.502326,57.6992251l-2.8279055,2.8279055-20.0434116-20.0434116c1.0914714-.744186,2.0837194-1.6868225,2.7782938-2.8279055l20.0930233,20.0434116Z" fill="#34a853"/>
  <path d="M34.0093019,11.0635662v10.9643403c-.6449628-.1488368-1.3395334-.1984504-2.0341078-.1984504s-1.2899217,0-1.9348845.1984504v-10.9643413s3.9689922,0,3.9689922.0000009Z" fill="#ea4335"/>
  <path d="M31.9751942,42.1705415c.6945744,0,1.3891488,0,2.0341078-.1984504v11.9069767h-3.9689922v-11.9069767c.6449609.0992233,1.2899217.1984504,1.9348845.1984504Z" fill="#34a853"/>
  <path d="M21.8046515,31.9999988c0,.8434093.0992252,1.6372108.2976737,2.4310085h-11.5100779v-3.9689922h11.3116275c-.0992252.496124-.0992252.9922481-.0992233,1.5379837Z" fill="#fbbc05"/>
  <path d="M53.4077508,30.4620151v3.9689922h-11.5596914c.1984504-.7937977.2976737-1.5875954.2976737-2.4310085s0-1.0418597-.0992233-1.5379837h11.3612411Z" fill="#4285f4"/>
  <path d="M26.3193795,40.4837228L6.2759697,60.477519l-2.8279074-2.8279055,20.0434116-20.0434116c.744186,1.0914714,1.6868225,2.0837194,2.8279074,2.7782938,0,0,0,.0992233-.0000019.0992271Z" fill="#fbbc05"/>
  <path d="M60.502326,6.3007753l-20.0930233,20.0434126c-.744186-1.0914732-1.6868225-2.0837213-2.7782938-2.8279074L57.7240321,3.5224806l2.8279055,2.8279074h0l-.0496116-.0496126Z" fill="#4285f4"/>
  <circle cx="57.3023256" cy="57.3023227" r="6.6976758" fill="#34a853"/>
  <circle cx="6.6976729" cy="57.3023284" r="6.6976721" fill="#fbbc05"/>
  <circle cx="32.0248049" cy="52.2418608" r="6.6976744" fill="#34a853"/>
  <circle cx="32.0000009" cy="31.9999988" r="6.6976744" fill="#7f7f7f"/>
  <circle cx="31.9751932" cy="11.7581398" r="6.6976748" fill="#ea4335"/>
  <circle cx="11.7829448" cy="31.9999988" r="6.6976744" fill="#fbbc05"/>
  <circle cx="52.2170552" cy="31.9999988" r="6.6976744" fill="#4285f4"/>
  <circle cx="6.6976744" cy="6.6976744" r="6.6976744" fill="#ea4335"/>
  <circle cx="57.3023256" cy="6.6976744" r="6.6976744" fill="#4285f4"/>
</svg>