<?xml version="1.0" encoding="UTF-8"?>
<svg id="Layer_1" xmlns="http://www.w3.org/2000/svg" baseProfile="tiny" version="1.2" viewBox="0 0 64 64">
  <!-- Generator: Adobe Illustrator 29.6.1, SVG Export Plug-In . SVG Version: 2.1.1 Build 9)  -->
  <polygon points="32 31.3599949 32.2641373 31.6241322 31.6241322 31.6241322 31.9492188 31.3092136 31.9796619 31.2685394 31.9796619 30.963789 32.1320686 31.1161957 32 31.2482643 32 31.3599949" fill="#34a853"/>
  <path d="M54.1765251,51.3015862c-1.2088928.6704483-2.2044907,1.6660461-2.874939,2.874939l-15.7765388-15.7765388c1.2088928-.6602821,2.2146568-1.6660461,2.874939-2.874939l15.7765388,15.7765388Z" fill="#34a853"/>
  <polygon points="32.1320686 31.1161957 32 31.2482643 32 31.3599949 31.9492188 31.3092136 31.9796619 31.2685394 31.9796619 30.963789 32.1320686 31.1161957" fill="#4285f4"/>
  <path d="M54.1663551,12.6984129l-15.7663689,15.776475c-.6602821-1.2088909-1.6660461-2.2145958-2.874939-2.874876l15.7765388-15.7663689c.6704483,1.1987228,1.6660461,2.1942587,2.864769,2.8647699Z" fill="#4285f4"/>
  <path d="M28.4647808,25.6000118c-1.2088909.6704483-2.2044888,1.6659851-2.864769,2.874876l-15.7765379-15.7764759c1.2088919-.6603422,2.2044888-1.6558781,2.874938-2.864769l15.7663689,15.7663689Z" fill="#ea4335"/>
  <polygon points="32.1320686 31.1161957 32 31.2482643 31.9796619 31.2685394 31.9796619 30.963789 32.1320686 31.1161957" fill="#ea4335"/>
  <path d="M28.4647808,38.3999863l-15.7663689,15.7765388c-.6704493-1.2088928-1.6660461-2.2044907-2.874938-2.864769l15.7765379-15.7765388c.6704483,1.1987228,1.6660461,2.1943207,2.864769,2.864769Z" fill="#fbbc05"/>
  <polygon points="32.2641373 31.6241322 31.6241322 31.6241322 31.9492188 31.3092136 31.9796619 31.2685394 31.9796619 30.963789 32.1320686 31.1161957 32 31.2482643 32 31.3599949 32.2641373 31.6241322" fill="#fbbc05"/>
  <polygon points="32 31.3599949 32.2641373 31.6241322 31.6241322 31.6241322 31.9492188 31.3092136 31.9796619 31.2685394 31.9796619 30.963789 32.1320686 31.1161957 32 31.2482643 32 31.3599949" fill="#ea4335"/>
  <path d="M34.0317459,18.458395v6.5218868c-.6501732-.1929569-1.3307915-.2945805-2.0317459-.2945805s-1.3815727.1016254-2.0317459.2945805v-6.5117188c.6400051.1828499,1.3104534.2844734,2.0114098.2844734.7111244,0,1.4019089-.1016254,2.0520821-.2946415Z" fill="#ea4335"/>
  <path d="M34.0317459,39.0196571v6.5117798c-.6400032-.1828499-1.3104553-.2844734-2.0114098-.2844734-.7111244,0-1.4019089.1016235-2.052084.2946434v-6.5219498c.6501732.1930199,1.3307915.2946434,2.0317459.2946434.7009525,0,1.3815708-.1016235,2.0317478-.2946434Z" fill="#34a853"/>
  <polygon points="32.1320686 31.1161957 32 31.2482643 32 30.984127 32.1320686 31.1161957" fill="#4285f4"/>
  <polygon points="32 31.3599949 32.2641373 31.6241322 32 31.6241322 32 31.3599949" fill="#4285f4"/>
  <path d="M45.2266884,32c0,.7009544.1015625,1.3815727.2945824,2.0317459h-6.5016136c.1930199-.6501732.2946434-1.3307915.2946434-2.0317459s-.1016235-1.3815727-.2946434-2.0317459h6.5016136c-.1930199.6501732-.2945824,1.3307915-.2945824,2.0317459Z" fill="#4285f4"/>
  <path d="M24.6857014,32c0,.7009544.1016254,1.3815727.2946434,2.0317459h-6.5016117c.193018-.6501732.2945805-1.3307915.2945805-2.0317459s-.1015625-1.3815727-.2945805-2.0317459h6.5016117c-.193018.6501732-.2946434,1.3307915-.2946434,2.0317459Z" fill="#fbbc05"/>
  <polygon points="31.9796619 31.2685394 31.9796619 31.6241322 31.6241322 31.6241322 31.9492188 31.3092136 31.9796619 31.2685394" fill="#fbbc05"/>
  <path d="M64,57.7015762c0,3.4742699-2.8241577,6.2984238-6.2984238,6.2984238s-6.2984238-2.8241577-6.2984238-6.2984238c0-3.4640999,2.8241577-6.2882576,6.2984238-6.2882576s6.2984238,2.8241577,6.2984238,6.2882576Z" fill="#34a853"/>
  <path d="M12.5968504,57.7015762c0,3.4742699-2.8241568,6.2984238-6.2984252,6.2984238s-6.2984252-2.8241577-6.2984252-6.2984238c0-3.4640999,2.8241568-6.2882576,6.2984252-6.2882576s6.2984252,2.8241577,6.2984252,6.2882576Z" fill="#fbbc05"/>
  <path d="M38.3186989,52.5612602c0,3.4742699-2.8240929,6.2984238-6.2983627,6.2984238-3.4641609,0-6.2882557-2.8241577-6.2882557-6.2984238s2.8240948-6.2984238,6.2882557-6.2984238c3.4742699,0,6.2983627,2.8241577,6.2983627,6.2984238Z" fill="#34a853"/>
  <circle cx="32" cy="32" r="6.2984238" fill="#7f7f7f"/>
  <path d="M38.2679176,11.4387398c0,3.474268-2.8240929,6.2984257-6.2882557,6.2984257-3.474268,0-6.2983627-2.8241568-6.2983627-6.2984257,0-3.4743304,2.8240948-6.2984252,6.2983627-6.2984252,3.4641628,0,6.2882557,2.8240948,6.2882557,6.2984252Z" fill="#ea4335"/>
  <path d="M17.7574406,32c0,3.4742699-2.8240948,6.2984238-6.2983627,6.2984238-3.4641619,0-6.2882562-2.8241577-6.2882562-6.2984257s2.8240948-6.2984257,6.2882562-6.2984257c3.474268,0,6.2983627,2.8241577,6.2983627,6.2984276Z" fill="#fbbc05"/>
  <path d="M58.8393478,32c0,3.4742699-2.8342628,6.2984238-6.2984238,6.2984238-3.4742699,0-6.2983627-2.8241577-6.2983627-6.2984257s2.8240967-6.2984257,6.2983627-6.2984257c3.4641609,0,6.2984238,2.8241577,6.2984238,6.2984276Z" fill="#4285f4"/>
  <path d="M12.5968504,6.2984252c0,3.4640994-2.8241568,6.2984252-6.2984252,6.2984252S0,9.7625246,0,6.2984252C0,2.8240948,2.8241568,0,6.2984252,0s6.2984252,2.8240948,6.2984252,6.2984252Z" fill="#ea4335"/>
  <path d="M64,6.2984252c0,3.4640994-2.8241577,6.2984252-6.2984238,6.2984252s-6.2984238-2.8343248-6.2984238-6.2984252C51.4031487,2.8240948,54.2273064,0,57.7015762,0s6.2984238,2.8240948,6.2984238,6.2984252Z" fill="#4285f4"/>
</svg>